<?xml version="1.0" encoding="utf-8"?>
<!-- Generator: Adobe Illustrator 15.1.0, SVG Export Plug-In . SVG Version: 6.00 Build 0)  -->
<!DOCTYPE svg PUBLIC "-//W3C//DTD SVG 1.1//EN" "http://www.w3.org/Graphics/SVG/1.1/DTD/svg11.dtd">
<svg version="1.1" id="Layer_1" xmlns="http://www.w3.org/2000/svg" xmlns:xlink="http://www.w3.org/1999/xlink" x="0px" y="0px"
	 width="612px" height="792px" viewBox="0 0 612 792" enable-background="new 0 0 612 792" xml:space="preserve">
<path fill="#010101" d="M521.562,336.344H502.65V211.496c0-108.395-88.228-196.598-196.65-196.598
	c-108.42,0-196.648,88.203-196.648,196.598v124.848H90.44c-21.295,0-38.619,17.271-38.619,38.644V738.51
	c0,21.371,17.324,38.592,38.619,38.592h431.122c21.295,0,38.616-17.221,38.616-38.592V374.987
	C560.179,353.615,542.857,336.344,521.562,336.344z M182.537,211.496c0-68.062,55.376-123.412,123.463-123.412
	s123.464,55.351,123.464,123.412v124.848H182.537V211.496z M357.226,626.219c1.23,3.973,0.513,8.303-1.948,11.659
	c-2.46,3.357-6.379,5.33-10.53,5.355l-77.542,0.333c0,0-0.025,0-0.051,0c-4.152,0-8.047-1.945-10.507-5.278
	c-2.486-3.331-3.254-7.636-2.05-11.633l23.933-79.311c-15.17-9.278-25.395-25.831-25.395-44.948
	c0-29.162,23.653-52.839,52.865-52.839c29.162,0,52.865,23.677,52.865,52.839c0,19.373-10.558,36.133-26.085,45.332L357.226,626.219
	z"/>
<path fill="#010101" d="M2101.451,218.486h-338.606V93.793c0-67.978,55.306-123.261,123.312-123.261
	c68.003,0,123.311,55.283,123.311,123.261v13.897h73.097V93.793c0-108.263-88.122-196.356-196.407-196.356
	c-108.288,0-196.406,88.094-196.406,196.356v124.693h-18.893c-21.265,0-38.568,17.25-38.568,38.595v363.074
	c0,21.346,17.304,38.546,38.568,38.546h430.594c21.268,0,38.568-17.2,38.568-38.546V257.081
	C2140.02,235.736,2122.719,218.486,2101.451,218.486z"/>
<path fill="#010101" d="M2365.723,217.126h-18.895V92.401c0-108.288-88.138-196.401-196.45-196.401
	c-108.314,0-196.455,88.113-196.455,196.401v124.725h-18.893c-21.274,0-38.58,17.251-38.58,38.604v363.162
	c0,21.351,17.306,38.554,38.58,38.554h430.692c21.275,0,38.581-17.203,38.581-38.554V255.729
	C2404.304,234.377,2386.998,217.126,2365.723,217.126z M2027.034,92.401c0-67.99,55.323-123.289,123.344-123.289
	c68.018,0,123.342,55.299,123.342,123.289v124.725h-246.686V92.401z M2142.003,572.94c0,15.896-12.897,28.749-28.773,28.749
	h-131.812c-15.872,0-28.775-12.853-28.775-28.749V302.117c0-15.925,12.903-28.799,28.775-28.799h131.812
	c15.876,0,28.773,12.874,28.773,28.799V572.94z"/>
<path fill="#010101" d="M2313.35,217.126h-18.895V92.401c0-108.288-88.14-196.401-196.453-196.401
	c-108.314,0-196.455,88.113-196.455,196.401v124.725h-18.89c-21.277,0-38.583,17.251-38.583,38.604v363.162
	c0,21.351,17.306,38.554,38.583,38.554h430.692c21.272,0,38.578-17.203,38.578-38.554V255.729
	C2351.928,234.377,2334.622,217.126,2313.35,217.126z M1974.659,92.401c0-67.99,55.321-123.289,123.343-123.289
	c68.02,0,123.341,55.299,123.341,123.289v124.725h-246.684V92.401z M2287.363,572.94c0,15.896-12.902,28.749-28.773,28.749h-131.812
	c-15.874,0-28.775-12.853-28.775-28.749V302.117c0-15.925,12.901-28.799,28.775-28.799h131.812
	c15.871,0,28.773,12.874,28.773,28.799V572.94z"/>
</svg>
