<?xml version="1.0" encoding="utf-8"?>
<!-- Generator: Adobe Illustrator 15.1.0, SVG Export Plug-In . SVG Version: 6.00 Build 0)  -->
<!DOCTYPE svg PUBLIC "-//W3C//DTD SVG 1.1//EN" "http://www.w3.org/Graphics/SVG/1.1/DTD/svg11.dtd">
<svg version="1.1" id="Layer_1" xmlns="http://www.w3.org/2000/svg" xmlns:xlink="http://www.w3.org/1999/xlink" x="0px" y="0px"
	 width="612px" height="792px" viewBox="0 0 612 792" enable-background="new 0 0 612 792" xml:space="preserve">
<path fill="#010101" d="M1354.517,490.898H836.502c-13.168,0-23.802,10.658-23.802,23.803v446.562
	c0,13.145,10.634,23.803,23.802,23.803h518.015c13.169,0,23.805-10.658,23.805-23.803V514.701
	C1378.321,501.557,1367.686,490.898,1354.517,490.898z M1330.715,720.109h-217.331V538.504h217.331V720.109z M1077.637,538.504
	v181.605h-217.33V538.504H1077.637z M860.307,755.857h217.33v181.605h-217.33V755.857z M1113.384,937.463V755.857h217.331v181.605
	H1113.384z"/>
<g>
	<g>
		<path fill="#010101" d="M537.741,779.769H74.232c-36.979,0-67.076-30.101-67.076-67.102V79.334
			c0-37.002,30.096-67.103,67.076-67.103h463.509c36.999,0,67.103,30.101,67.103,67.103v633.333
			C604.844,749.668,574.74,779.769,537.741,779.769z M74.232,60.965c-10.111,0-18.345,8.245-18.345,18.369v633.333
			c0,10.124,8.234,18.368,18.345,18.368h463.509c10.137,0,18.366-8.244,18.366-18.368V79.334c0-10.124-8.229-18.369-18.366-18.369
			H74.232z"/>
	</g>
	<g>
		<path fill="#010101" d="M324.273,109.697c0,10.09-8.187,18.273-18.271,18.273c-10.095,0-18.282-8.184-18.282-18.273
			s8.187-18.275,18.282-18.275C316.087,91.422,324.273,99.607,324.273,109.697z"/>
	</g>
	<g>
		<path fill="#010101" d="M324.273,688.395c0,10.09-8.187,18.276-18.271,18.276c-10.095,0-18.282-8.187-18.282-18.276
			s8.187-18.276,18.282-18.276C316.087,670.118,324.273,678.305,324.273,688.395z"/>
	</g>
	<g>
		<path fill="#010101" d="M154.424,632.261l-11.8-36.834h9.135l4.476,15.587c1.237,4.424,2.426,8.565,3.284,13.157h0.138
			c0.955-4.424,2.094-8.802,3.332-13.015l4.711-15.729h8.852l-12.375,36.834H154.424z"/>
		<path fill="#010101" d="M188.31,622.815l-2.623,9.445h-8.564l11.188-36.834h10.942l11.469,36.834h-8.992l-2.855-9.445H188.31z
			 M197.685,616.58l-2.334-7.828c-0.618-2.188-1.285-4.901-1.855-7.092h-0.096c-0.522,2.19-1.092,4.976-1.667,7.092l-2.186,7.828
			H197.685z"/>
		<path fill="#010101" d="M217.815,632.261v-36.834h9.706l7.665,13.493c2.19,3.878,4.279,8.472,5.995,12.634h0.096
			c-0.48-4.877-0.618-9.849-0.618-15.419v-10.708h7.61v36.834h-8.708l-7.899-14.202c-2.19-3.953-4.615-8.686-6.374-13.02h-0.24
			c0.283,4.928,0.379,10.113,0.379,16.134v11.088H217.815z"/>
		<path fill="#010101" d="M257.694,595.973c3.048-0.497,7.045-0.83,11.186-0.83c7.089,0,11.656,1.332,15.179,3.949
			c3.812,2.832,6.236,7.376,6.236,13.873c0,7.044-2.574,11.92-6.091,14.918c-3.902,3.238-9.85,4.761-17.04,4.761
			c-4.328,0-7.424-0.262-9.47-0.546V595.973z M266.024,625.98c0.713,0.168,1.903,0.168,2.856,0.168
			c7.612,0.045,12.61-4.118,12.61-12.898c0-7.661-4.524-11.706-11.709-11.706c-1.807,0-3.044,0.164-3.757,0.332V625.98z"/>
		<path fill="#010101" d="M319.85,616.677h-13.565v8.757h15.131v6.827h-23.413v-36.834h22.655v6.83h-14.374v7.662h13.565V616.677z"
			/>
		<path fill="#010101" d="M329.319,595.929c2.666-0.453,6.614-0.786,11.086-0.786c5.475,0,9.28,0.83,11.945,2.901
			c2.237,1.761,3.426,4.38,3.426,7.757c0,4.664-3.33,7.878-6.518,9.02v0.168c2.569,1.046,3.997,3.451,4.945,6.827
			c1.146,4.214,2.239,9.02,2.954,10.445h-8.566c-0.521-1.092-1.476-4.044-2.472-8.589c-1.051-4.64-2.671-5.829-6.093-5.901h-2.473
			v14.49h-8.235V595.929z M337.555,611.774h3.283c4.184,0,6.614-2.093,6.614-5.307c0-3.331-2.287-5.092-6.093-5.092
			c-2.047,0-3.187,0.119-3.805,0.284V611.774z"/>
		<path fill="#010101" d="M363.916,595.929c2.19-0.381,6.565-0.786,10.755-0.786c5.095,0,8.234,0.497,10.947,2.094
			c2.57,1.357,4.375,3.878,4.375,7.257c0,3.235-1.901,6.233-6.091,7.83v0.092c4.237,1.096,7.333,4.334,7.333,9.022
			c0,3.398-1.523,6.019-3.811,7.874c-2.664,2.142-7.185,3.332-14.464,3.332c-4.141,0-7.191-0.262-9.045-0.546V595.929z
			 M372.15,610.016h2.761c4.424,0,6.71-1.81,6.71-4.522c0-2.81-2.143-4.282-5.905-4.282c-1.854,0-2.899,0.117-3.565,0.236V610.016z
			 M372.15,626.361c0.857,0.119,1.807,0.119,3.234,0.119c3.764,0,7.143-1.475,7.143-5.377c0-3.644-3.379-5.116-7.525-5.116h-2.852
			V626.361z"/>
		<path fill="#010101" d="M407.508,595.427v36.834h-8.33v-36.834H407.508z"/>
		<path fill="#010101" d="M416.931,595.427h8.33v29.839h14.657v6.995h-22.987V595.427z"/>
		<path fill="#010101" d="M448.482,602.424h-9.944v-6.997h28.317v6.997h-10.041v29.837h-8.332V602.424z"/>
	</g>
</g>
</svg>
