<?xml version="1.0" encoding="utf-8"?>
<!-- Generator: Adobe Illustrator 15.1.0, SVG Export Plug-In . SVG Version: 6.00 Build 0)  -->
<!DOCTYPE svg PUBLIC "-//W3C//DTD SVG 1.1//EN" "http://www.w3.org/Graphics/SVG/1.1/DTD/svg11.dtd">
<svg version="1.1" id="Layer_1" xmlns="http://www.w3.org/2000/svg" xmlns:xlink="http://www.w3.org/1999/xlink" x="0px" y="0px"
	 width="612px" height="792px" viewBox="0 0 612 792" enable-background="new 0 0 612 792" xml:space="preserve">
<path fill="#010101" d="M471.527,71.786c-27.537-3.986-104.036-11.145-158.582-11.145c-31.48,0-76.206,4.408-112.156,7.956
	c-24.745,2.455-46.11,4.575-56.247,4.575c-22.855,0-32.615,9.716-32.615,32.615l0.105,39.331
	c0.294,123.911,1.28,500.822-0.084,533.859c-0.882,20.335,1.238,31.247,7.282,37.543c5.373,5.604,12.991,6.382,19.771,6.382
	c5.562,0,24.345,1.133,48.061,2.604c40.296,2.496,95.514,5.854,124.204,5.854c3.295,0,6.254,0,8.793-0.105
	c37.21-1.404,117.636-6.926,118.453-6.986c56.373-3.801,61.872-12.888,61.536-34.252V108.557c0-1.134,0.02-2.393,0.084-3.631
	C500.553,94.18,501.224,76.151,471.527,71.786z M140.114,91.011c15.173,0,49.803-2.939,83.278-5.814
	c29.948-2.622,60.969-5.288,79.648-5.98c20.672-0.84,42.184,1.593,70.245,4.7c25.878,2.896,58.114,6.464,100.551,8.626
	c2.603,0.106,4.975,1.553,6.359,3.777c1.343,2.246,1.531,5.038,0.398,7.43c-15.53,33.454-45.375,51.881-158.266,53.371l-4.849,0.042
	c-89.553,0-190.439-36.686-190.439-56.205C127.039,99.322,127.71,91.011,140.114,91.011z M440.192,340.508
	c-0.104-0.042-0.252-0.042-0.399,0c-0.65,0-1.385-0.082-2.077-0.293l-12.782-3.904c-34.587-9.822-70.309-19.958-116.459-19.958
	c-41.156,0-86.006,8.185-134.634,25.101c-0.84,0.335-1.743,0.44-2.603,0.44c-2.707,0-5.331-1.428-6.779-3.883
	c-1.888-3.254-1.258-7.408,1.532-9.865c15.132-13.495,81.327-47.957,145.401-49.341h3.296c28.122,0,73.309,7.997,128.904,46.047
	l0.566,0.418c2.959,1.156,5.079,4.01,5.079,7.367C449.238,336.962,444.516,340.508,440.192,340.508z M442.165,398.057v218.437
	c0,4.156-3.211,7.619-7.388,7.914c-1.07,0.039-107.729,7.093-186.684,7.093c-36.959,0-61.745-1.468-75.744-4.47
	c-3.526-0.757-6.086-3.821-6.191-7.431c-1.406-40.043-2.77-219.696-2.812-221.501c0-4.093,3.043-7.534,7.115-7.913
	c26.276-2.666,95.242-5.436,155.979-5.436c35.405,0,83.048,0.965,109.177,5.542C439.374,390.92,442.165,394.195,442.165,398.057z
	 M481.559,689.596c-2.099,11.184-20.062,13.326-25.521,13.745c-55.154,3.903-115.474,5.878-179.316,5.878
	c-66.761,0-118.307-2.31-121.958-2.939c-21.932-3.884-28.92-7.199-29.97-14.188c-0.504-3.4,1.826-7.766,4.848-9.319
	c23.275-15.132,105.315-37.63,190.985-37.63c58.618,0,109.345,10.033,150.732,29.76
	C481.223,679.603,482.356,685.501,481.559,689.596z"/>
</svg>
