<?xml version="1.0" encoding="utf-8"?>
<!-- Generator: Adobe Illustrator 15.1.0, SVG Export Plug-In . SVG Version: 6.00 Build 0)  -->
<!DOCTYPE svg PUBLIC "-//W3C//DTD SVG 1.1//EN" "http://www.w3.org/Graphics/SVG/1.1/DTD/svg11.dtd">
<svg version="1.1" id="Layer_1" xmlns="http://www.w3.org/2000/svg" xmlns:xlink="http://www.w3.org/1999/xlink" x="0px" y="0px"
	 width="612px" height="792px" viewBox="0 0 612 792" enable-background="new 0 0 612 792" xml:space="preserve">
<path fill="#232020" d="M558.358,411.395c-2.748-5.562-5.686-11.376-8.733-17.383c-23.711-46.698-53.238-104.855-33.596-166.722
	c0.829-2.683-0.041-5.58-2.194-7.414c-2.195-1.788-5.199-2.065-7.69-0.788c-23.903,12.911-31.04,19.621-60.972,47.827
	c-7.839,7.35-17.214,16.233-28.887,27.097c-70.175-74.817-104.813-151.446-103.003-227.905c0.044-2.855-1.684-5.497-4.41-6.56
	c-2.706-1.046-5.795-0.342-7.754,1.852c-106.519,121.622-140.007,232.38-147.484,262.14c-7.371-3.835-22.411-14.677-44.802-44.737
	c-2.002-2.706-5.561-3.536-8.606-2.109c-2.961,1.45-4.517,4.773-3.686,7.989c17.214,65.146-1.278,94.587-20.857,125.648
	c-16.722,26.46-33.936,53.792-32.466,102.385c1.598,49.894,47.124,89.049,83.745,120.473c19.258,16.488,37.429,32.104,39.965,42.521
	c0.767,3.132,3.6,5.283,6.838,5.306c3.218-0.087,5.987-2.322,6.647-5.454c9.097-43.268-16.745-71.471-39.539-96.333
	c-14.337-15.767-27.907-30.529-32.041-47.593c-5.772-23.584,4.346-44.802,17.15-71.646c8.67-18.234,18.256-38.368,25.116-63.206
	c33.852,86.47,53.75,105.238,90.817,140.177l10.012,9.459c1.321,1.235,3.046,1.916,4.772,1.916c0.149,0,0.256,0,0.341,0
	c3.812,0,6.945-3.11,6.945-6.902c0-1.833-0.682-3.409-1.747-4.687c-9.757-22.411-3.962-54.389,15.146-85.812
	c6.69,12.569,16.873,25.415,27.566,38.837c31.316,39.582,50,67.553,25.181,94.247c-47.25,50.746-53.152,90.156-21.752,145.419
	c1.131,2.045,3.239,3.26,5.412,3.427c0.341,0.045,0.661,0.065,0.959,0.065c3.836,0,6.923-3.131,6.923-6.902
	c0-1.428-0.403-2.684-1.085-3.771c-4.558-17.49-11.824-55.263,54.367-102.492c76.991-55.069,89.047-113.569,96.248-148.508
	c7.392-36.194-19.108-104.536-26.394-122.323c3.386-3.537,6.838-6.859,9.202-9.032c1.151,2.513,2.79,5.688,5.433,10.694
	c3.493,6.582,8.882,16.765,17.235,33.532c21.004,41.99,40.306,110.884,17.574,132.634c-3.322,3.196-6.774,6.243-10.246,9.46
	c-24.905,22.708-53.155,48.379-58.458,102.832c-0.149,1.47-0.277,2.898-0.383,4.366c-0.128,3.771,2.769,6.945,6.54,7.201
	c3.854-0.106,7.03-2.683,7.327-6.412l0.299-3.642c2.854-21.324,25.159-42.758,72.304-69.302
	C561.726,533.039,583.54,462.992,558.358,411.395z"/>
</svg>
