<?xml version="1.0" encoding="utf-8"?>
<!-- Generator: Adobe Illustrator 15.1.0, SVG Export Plug-In . SVG Version: 6.00 Build 0)  -->
<!DOCTYPE svg PUBLIC "-//W3C//DTD SVG 1.1//EN" "http://www.w3.org/Graphics/SVG/1.1/DTD/svg11.dtd">
<svg version="1.1" id="Layer_1" xmlns="http://www.w3.org/2000/svg" xmlns:xlink="http://www.w3.org/1999/xlink" x="0px" y="0px"
	 width="612px" height="792px" viewBox="0 0 612 792" enable-background="new 0 0 612 792" xml:space="preserve">
<g>
	<path fill="#010101" d="M502.477,11.905H119.465c-1.633,0-3.436,0.17-4.874,0.706l-1.828-0.341
		c-5.751-0.925-11.916,0.708-16.424,4.484c-4.508,3.801-7.018,9.406-7.018,15.351v671.816c0,9.941,7.018,18.227,16.765,19.859
		l331.959,56.143c1.074,0,2.316,0.172,3.414,0.172c4.678,0,9.381-1.609,13.012-4.68c4.508-3.971,7.213-9.576,7.213-15.545v-35.725
		h40.791c11.184,0,20.201-9.016,20.201-20.225V32.105C522.678,20.946,513.66,11.905,502.477,11.905z M421.234,724.146v11.916
		l-70.738-11.916l-220.918-37.184V55.938l291.656,49.271V724.146z"/>
	<path fill="#010101" d="M350.641,407.758c0,10.186,8.262,18.471,18.473,18.471c10.209,0,18.471-8.285,18.471-18.471
		c0-10.21-8.262-18.471-18.471-18.471C358.902,389.287,350.641,397.548,350.641,407.758z"/>
</g>
<path fill="#232020" d="M750.452,309.582c-1.281-0.186-4.841-0.519-7.379-0.519c-1.465,0-3.546,0.205-5.219,0.37
	c-1.151,0.114-2.146,0.213-2.617,0.213c-1.063,0-1.518,0.452-1.518,1.518l0.005,1.83c0.014,5.766,0.06,23.304-0.004,24.841
	c-0.041,0.946,0.058,1.454,0.339,1.747c0.25,0.261,0.604,0.297,0.92,0.297c0.259,0,1.133,0.053,2.236,0.121
	c1.875,0.116,4.444,0.272,5.779,0.272c0.153,0,0.291,0,0.409-0.005c1.731-0.065,5.474-0.322,5.512-0.325
	c2.623-0.177,2.879-0.6,2.863-1.594v-27.056c0-0.053,0.001-0.111,0.004-0.169C751.803,310.624,751.834,309.785,750.452,309.582z
	 M735.031,310.477c0.706,0,2.317-0.137,3.875-0.271c1.394-0.122,2.837-0.246,3.706-0.278c0.962-0.039,1.963,0.074,3.269,0.219
	c1.204,0.135,2.704,0.301,4.679,0.401c0.121,0.005,0.231,0.072,0.296,0.176c0.062,0.104,0.071,0.234,0.019,0.346
	c-0.723,1.557-2.111,2.414-7.364,2.483l-0.226,0.002c-4.167,0-8.861-1.707-8.861-2.615
	C734.423,310.863,734.454,310.477,735.031,310.477z M748.994,322.086c-0.005-0.002-0.012-0.002-0.019,0
	c-0.03,0-0.064-0.004-0.097-0.014l-0.595-0.182c-1.609-0.457-3.271-0.929-5.419-0.929c-1.915,0-4.002,0.381-6.265,1.168
	c-0.039,0.016-0.081,0.021-0.121,0.021c-0.126,0-0.248-0.066-0.315-0.181c-0.088-0.151-0.059-0.345,0.071-0.459
	c0.704-0.628,3.784-2.231,6.766-2.296h0.153c1.309,0,3.411,0.372,5.998,2.143l0.026,0.02c0.138,0.054,0.236,0.187,0.236,0.343
	C749.415,321.921,749.195,322.086,748.994,322.086z M749.086,324.764v10.164c0,0.193-0.149,0.354-0.344,0.368
	c-0.05,0.002-5.013,0.33-8.687,0.33c-1.72,0-2.873-0.068-3.524-0.208c-0.164-0.035-0.283-0.178-0.288-0.346
	c-0.065-1.863-0.129-10.223-0.131-10.307c0-0.19,0.142-0.351,0.331-0.368c1.223-0.124,4.432-0.253,7.258-0.253
	c1.647,0,3.864,0.045,5.08,0.258C748.956,324.432,749.086,324.584,749.086,324.764z M750.919,338.329
	c-0.098,0.521-0.934,0.62-1.188,0.64c-2.566,0.182-5.373,0.273-8.344,0.273c-3.106,0-5.505-0.107-5.675-0.137
	c-1.021-0.181-1.346-0.335-1.395-0.66c-0.023-0.158,0.085-0.361,0.226-0.434c1.083-0.704,4.9-1.751,8.887-1.751
	c2.728,0,5.088,0.467,7.014,1.385C750.903,337.864,750.956,338.139,750.919,338.329z"/>
</svg>
