<?xml version="1.0" encoding="utf-8"?>
<!-- Generator: Adobe Illustrator 15.1.0, SVG Export Plug-In . SVG Version: 6.00 Build 0)  -->
<!DOCTYPE svg PUBLIC "-//W3C//DTD SVG 1.1//EN" "http://www.w3.org/Graphics/SVG/1.1/DTD/svg11.dtd">
<svg version="1.1" id="Layer_1" xmlns="http://www.w3.org/2000/svg" xmlns:xlink="http://www.w3.org/1999/xlink" x="0px" y="0px"
	 width="612px" height="578px" viewBox="0 106.5 612 578" enable-background="new 0 106.5 612 578" xml:space="preserve">
<path fill="#010101" d="M1354.517,490.898H836.502c-13.168,0-23.802,10.657-23.802,23.803v446.562
	c0,13.146,10.634,23.804,23.802,23.804h518.016c13.168,0,23.805-10.658,23.805-23.804V514.701
	C1378.321,501.557,1367.686,490.898,1354.517,490.898z M1330.715,720.109h-217.331V538.504h217.331V720.109L1330.715,720.109z
	 M1077.637,538.504v181.605h-217.33V538.504H1077.637z M860.307,755.857h217.33v181.604h-217.33V755.857L860.307,755.857z
	 M1113.384,937.463V755.857h217.331v181.604L1113.384,937.463L1113.384,937.463z"/>
<g>
	<path fill="#010101" d="M180.771,349.611c4.356-4.774,4.014-12.173-0.76-16.509c-4.754-4.356-12.173-3.995-16.509,0.761
		c-45.934,50.459-42.264,128.917,8.197,174.889c2.245,2.035,5.06,3.043,7.875,3.043c3.177,0,6.333-1.273,8.635-3.804
		c4.356-4.773,4.014-12.173-0.76-16.51C146.517,454.184,143.511,390.543,180.771,349.611z"/>
	<path fill="#010101" d="M200.915,420.537c-0.896-18.963,5.667-37.107,18.449-51.125c4.355-4.774,4.014-12.154-0.761-16.509
		c-4.773-4.337-12.154-3.995-16.509,0.761c-17.003,18.639-25.696,42.774-24.516,67.958c1.179,25.183,12.096,48.406,30.736,65.391
		c2.245,2.035,5.06,3.044,7.875,3.044c3.176,0,6.334-1.273,8.634-3.805c4.356-4.773,4.014-12.172-0.76-16.509
		C210.024,456.96,201.809,439.48,200.915,420.537z"/>
	<path fill="#010101" d="M260.047,447.45c-8.103-7.379-12.838-17.479-13.333-28.416c-0.477-10.88,3.29-21.283,10.631-29.31
		c4.356-4.774,4.032-12.154-0.722-16.509c-4.755-4.337-12.154-4.014-16.509,0.722c-11.564,12.649-17.518,29.043-16.737,46.162
		c0.779,17.175,8.197,33.019,20.921,44.62c2.245,2.035,5.06,3.043,7.875,3.043c3.177,0,6.334-1.273,8.636-3.804
		C265.164,459.186,264.821,451.806,260.047,447.45z"/>
	<path fill="#010101" d="M599.021,313.721L316.955,122.038c-0.686-0.476-1.483-0.685-2.206-1.065
		c-0.665-0.343-1.274-0.685-1.998-0.951c-4.374-1.617-9.128-1.617-13.503,0c-0.703,0.266-1.331,0.608-1.997,0.951
		c-0.724,0.38-1.521,0.589-2.206,1.065L12.977,313.721c-8.882,6.049-11.202,18.165-5.154,27.065
		c6.029,8.883,18.126,11.222,27.066,5.155l32.238-21.911v294.524c0,29.576,24.061,53.638,53.618,53.638h370.49
		c29.577,0,53.636-24.062,53.636-53.638V324.03l32.239,21.911c3.367,2.282,7.17,3.366,10.937,3.366c6.239,0,12.363-2.986,16.13-8.54
		C610.225,331.885,607.905,319.77,599.021,313.721z M106.08,618.555V301.188c0-1.122-0.456-2.111-0.646-3.196l181.091-123.059
		v458.307h-165.78C112.661,633.238,106.08,626.657,106.08,618.555z M505.918,301.188v317.367c0,8.104-6.58,14.685-14.683,14.685
		H325.477V174.933l181.091,123.059C506.374,299.077,505.918,300.064,505.918,301.188z"/>
</g>
</svg>
